<svg viewBox="0 0 320 180" xmlns="http://www.w3.org/2000/svg" width="880" height="495">
<defs><clipPath id="ia1"><rect x="84" y="30" width="104" height="104" rx="26"/></clipPath></defs>
<ellipse cx="160" cy="160" rx="96" ry="9" fill="#1F2160" opacity=".08"/>
<path d="M40 58c14-22 40-30 58-22" fill="none" stroke="#37419E" stroke-width="2" stroke-dasharray="2 7" stroke-linecap="round" opacity=".55"/>
<path d="M282 122c-12 22-38 30-58 22" fill="none" stroke="#37419E" stroke-width="2" stroke-dasharray="2 7" stroke-linecap="round" opacity=".55"/>
<rect x="22" y="58" width="22" height="22" rx="7" fill="#1F2160"/><rect x="34" y="64" width="22" height="22" rx="7" fill="#8EC5F5"/>
<path d="M34 64h3a7 7 0 0 1 7 7v9h-3a7 7 0 0 1-7-7z" fill="#37419E"/>
<rect x="268" y="96" width="18" height="18" rx="6" fill="#8EC5F5"/><rect x="278" y="102" width="18" height="18" rx="6" fill="#1F2160" opacity=".9"/>
<circle cx="250" cy="34" r="5" fill="#8EC5F5"/><circle cx="68" cy="140" r="4" fill="#37419E" opacity=".6"/>
<rect x="84" y="30" width="104" height="104" rx="26" fill="#1F2160"/>
<rect x="134" y="44" width="104" height="104" rx="26" fill="#8EC5F5"/>
<rect x="134" y="44" width="104" height="104" rx="26" fill="#37419E" clip-path="url(#ia1)"/>
<g transform="translate(112 90) scale(.85) translate(-120 -84)" fill="none" stroke="#FFFFFF" stroke-width="5.5" stroke-linecap="round" stroke-linejoin="round"><path d="M100 104l4-14 26-26a6.4 6.4 0 0 1 9 9l-26 26z"/><path d="M122 72l9 9"/></g>
<path d="M190 104l12 12 24-26" fill="none" stroke="#1F2160" stroke-width="6" stroke-linecap="round" stroke-linejoin="round"/>
<path d="M161 66l3.4 8.6 8.6 3.4-8.6 3.4-3.4 8.6-3.4-8.6-8.6-3.4 8.6-3.4z" fill="#FFFFFF"/>
</svg>